Coordinates
version=1
nRows=4
nColumns=63
inDegrees=yes

Units are S.I. units (second, meters, Newtons, ...)
If the header above contains a line with 'inDegrees', this indicates whether rotational values are in degrees (yes) or radians (no).

endheader
time	pelvis_tilt	pelvis_list	pelvis_rotation	pelvis_tx	pelvis_ty	pelvis_tz	hip_flexion_r	hip_adduction_r	hip_rotation_r	knee_angle_r	knee_angle_r_beta	ankle_angle_r	subtalar_angle_r	mtp_angle_r	hip_flexion_l	hip_adduction_l	hip_rotation_l	knee_angle_l	knee_angle_l_beta	ankle_angle_l	subtalar_angle_l	mtp_angle_l	L5_S1_Flex_Ext	L5_S1_Lat_Bending	L5_S1_axial_rotation	L4_L5_Flex_Ext	L4_L5_Lat_Bending	L4_L5_axial_rotation	L3_L4_Flex_Ext	L3_L4_Lat_Bending	L3_L4_axial_rotation	L2_L3_Flex_Ext	L2_L3_Lat_Bending	L2_L3_axial_rotation	L1_L2_Flex_Ext	L1_L2_Lat_Bending	L1_L2_axial_rotation	L1_T12_Flex_Ext	L1_T12_Lat_Bending	L1_T12_axial_rotation	Abs_r3	Abs_r2	Abs_r1	Abs_t1	Abs_t2	neck_flexion	neck_bending	neck_rotation	arm_flex_r	arm_add_r	arm_rot_r	elbow_flex_r	pro_sup_r	wrist_flex_r	wrist_dev_r	arm_flex_l	arm_add_l	arm_rot_l	elbow_flex_l	pro_sup_l	wrist_flex_l	wrist_dev_l
      5.14285714	     10.09838014	    -31.49177826	    102.12154756	      0.25618731	      0.30295862	      0.66119373	     21.78435029	      7.93898878	      0.17097503	      2.34252822	      0.04088483	     27.37135727	    -13.94659316	      0.00000000	     20.39797371	     -9.55962739	     -1.41329039	      2.07862318	      0.03627882	     33.75684969	    -11.85843082	      0.00000000	      0.14653854	      0.08643066	      0.11284627	      0.27213673	      0.11495277	      0.11989916	      0.24074817	      0.21014750	      0.11989916	      0.16747890	      0.21014750	      0.09874049	      0.13607569	      0.17624939	      0.09168760	      0.08373212	      0.13388109	      0.08463470	      1.04671016	      0.97772087	      0.62761711	      0.00000000	      0.00000000	     28.33629553	     -0.89376376	     18.93840108	      6.74783264	    -10.04454859	    173.08942305	      0.83563814	      5.22597324	    -13.76983354	     -5.67261850	      6.45784296	     -5.42333015	     50.16458249	     27.13132506	     73.79803433	    -16.02565010	    -12.12107007
      5.16326531	     10.17173907	    -31.48065340	    102.98959423	      0.25499598	      0.30376278	      0.66259832	     21.65566963	      7.65690920	      0.69803007	      1.83602240	      0.03204464	     26.99467413	    -14.75232065	      0.00000000	     20.78822877	     -9.30969371	     -1.08396329	      1.94434715	      0.03393526	     33.81869298	    -11.29145067	      0.00000000	      0.13020155	      0.07330110	     -0.11264757	      0.24179729	      0.09749047	     -0.11968804	      0.21390812	      0.17822430	     -0.11968804	      0.14880735	      0.17822430	     -0.09856662	      0.12090516	      0.14947561	     -0.09152615	      0.07439716	      0.11354341	     -0.08448567	      0.93001662	      0.82919674	     -0.62651197	      0.00000000	      0.00000000	     28.28144892	      1.88682892	     23.06024262	      7.62216342	     -9.66300140	    177.48663211	      0.83522184	      8.18640495	    -15.90207980	     -3.85821412	      5.88734200	     -5.71181099	     48.21305743	     27.62327135	     70.79522482	    -13.77110018	    -11.79058085
      5.18367347	     10.12883307	    -31.66171150	    103.49565727	      0.25400402	      0.30460671	      0.66447168	     21.83884609	      7.31547770	      1.35129453	      1.54998732	      0.02705238	     26.61144221	    -15.38591041	      0.00000000	     21.26400284	     -9.01663233	     -0.73283648	      1.78262269	      0.03111264	     33.94039182	    -10.51944340	      0.00000000	      0.14169529	      0.03657874	     -0.17959429	      0.26314232	      0.04864973	     -0.19081893	      0.23279119	      0.08893755	     -0.19081893	      0.16194354	      0.08893755	     -0.15714500	      0.13157824	      0.07459137	     -0.14592036	      0.08096469	      0.05666047	     -0.13469572	      1.01211526	      0.41378604	     -0.99884956	      0.00000000	      0.00000000	     28.21895447	      3.72987242	     25.07150590	      8.17035794	     -9.32357924	    180.08184579	      0.82245462	      9.47572857	    -16.94678049	     -2.77008643	      5.88575690	     -5.97079063	     48.47102975	     27.47012712	     69.12868869	    -12.91890745	    -11.14919006
      5.20408163	     10.13785812	    -31.84764559	    103.77988002	      0.25300261	      0.30540154	      0.66658769	     22.13925017	      7.05508472	      1.67337244	      1.46552341	      0.02557821	     26.38682761	    -15.18126595	      0.00000000	     21.66727161	     -8.82131764	     -0.33315991	      1.57037224	      0.02740817	     33.99285737	    -10.17020963	      0.00000000	      0.15882746	      0.00058846	     -0.17167824	      0.29495848	      0.00078265	     -0.18240813	      0.26093764	      0.00143079	     -0.18240813	      0.18152391	      0.00143079	     -0.15021846	      0.14748718	      0.00119999	     -0.13948857	      0.09075401	      0.00091153	     -0.12875868	      1.13448867	      0.00665680	     -0.95482286	      0.00000000	      0.00000000	     28.19550016	      4.52860697	     25.07759498	      8.54707235	     -9.05874633	    180.40185960	      0.89054827	      9.70139086	    -17.02286410	     -2.60643189	      5.91843409	     -5.98457870	     48.78416715	     26.65615453	     69.00560540	    -12.62322830	    -10.37552780
